HIERARCHY
ROOT ui
{
	 OFFSET 0 0 0
	 CHANNELS 3 XPosition YPosition Z Position
	 EndSite
	 {
	 OFFSET 0 -1 0
	 }
}
ROOT li
{
	 OFFSET 0 0 0
	 CHANNELS 3 XPosition YPosition Z Position
	 EndSite
	 {
	 OFFSET 0 -1 0
	 }
}
ROOT ul
{
	 OFFSET 0 0 0
	 CHANNELS 3 XPosition YPosition Z Position
	 EndSite
	 {
	 OFFSET 0 -1 0
	 }
}
ROOT ll
{
	 OFFSET 0 0 0
	 CHANNELS 3 XPosition YPosition Z Position
	 EndSite
	 {
	 OFFSET 0 -1 0
	 }
}
ROOT tt
{
	 OFFSET 0 0 0
	 CHANNELS 3 XPosition YPosition Z Position
	 EndSite
	 {
	 OFFSET 0 -1 0
	 }
}
ROOT tb
{
	 OFFSET 0 0 0
	 CHANNELS 3 XPosition YPosition Z Position
	 EndSite
	 {
	 OFFSET 0 -1 0
	 }
}
ROOT td
{
	 OFFSET 0 0 0
	 CHANNELS 3 XPosition YPosition Z Position
	 EndSite
	 {
	 OFFSET 0 -1 0
	 }
}
ROOT v
{
	 OFFSET 0 0 0
	 CHANNELS 3 XPosition YPosition Z Position
	 EndSite
	 {
	 OFFSET 0 -1 0
	 }
}
ROOT bn
{
	 OFFSET 0 0 0
	 CHANNELS 3 XPosition YPosition Z Position
	 EndSite
	 {
	 OFFSET 0 -1 0
	 }
}
MOTION
Frames: 10
Frame Time: 0.002
0.010920477867126464	0.0049909758567810054	0		0.4531888427734375	-2.450106201171875	0		-0.9922046508789063	0.329467529296875	0		-0.6505568237304687	-2.36010888671875	0		2.7560244140625	-0.2692887268066406	0		4.1237568359375	0.027697017669677734	0		5.34687451171875	0.09088069915771485	0		5.92515185546875	0.3697151489257812	0		-0.2383915557861328	5.96453369140625	0		
0.006821663856506348	9.686790108680725E-4	0		0.42423486328125	-2.449730712890625	0		-0.9922531127929688	0.3293504638671875	0		-0.6189202270507812	-2.386703125	0		2.770901611328125	-0.27551263427734374	0		4.11358154296875	0.018902219772338868	0		5.348587890625	0.07494252014160156	0		5.9251259765625	0.36990625	0		-0.23960920715332032	5.96545654296875	0		
0.0036928529739379884	-0.0020508530139923095	0		0.44712957763671873	-2.457133056640625	0		-1.031343505859375	0.3298463134765625	0		-0.6341611938476562	-2.402559814453125	0		2.766874755859375	-0.2724184265136719	0		4.13755615234375	0.02261544609069824	0		5.3655	0.07480774688720702	0		5.925068359375	0.3701611328125	0		-0.22672395324707031	5.97718115234375	0		
0.008501270294189452	-0.00717664098739624	0		0.43001986694335936	-2.462905517578125	0		-1.0213497924804686	0.33760272216796877	0		-0.5937535400390626	-2.440256591796875	0		2.7667705078125	-0.2723619384765625	0		4.145607421875	0.0336011962890625	0		5.37259521484375	0.08885573577880859	0		5.91786669921875	0.37246530151367185	0		-0.25915682983398436	5.9716123046875	0		
0.006489964008331299	8.171740174293518E-4	0		0.43201638793945313	-2.460954833984375	0		-1.04950927734375	0.33695205688476565	0		-0.633103759765625	-2.460719970703125	0		2.763876953125	-0.2572416687011719	0		4.1635771484375	0.04045830154418945	0		5.3863193359375	0.07982550048828126	0		5.9297548828125	0.34988467407226564	0		-0.2453518524169922	5.9833505859375	0		
0.006347804069519043	7.941250205039978E-4	0		0.45486859130859375	-2.468308837890625	0		-1.0066096801757813	0.34023056030273435	0		-0.5845889892578126	-2.49051123046875	0		2.75773095703125	-0.25805755615234377	0		4.16450927734375	0.04559413146972656	0		5.386173828125	0.08002848052978516	0		5.917671875	0.3732118530273438	0		-0.22783863830566406	5.97704443359375	0		
0.003161258935928345	-0.002171209096908569	0		0.45280224609375	-2.470270263671875	0		-1.0506846923828126	0.3458426513671875	0		-0.6331038208007812	-2.52181640625	0		2.77349267578125	-0.2651932678222656	0		4.175349609375	0.04459342575073242	0		5.39502783203125	0.08011000061035156	0		5.91757275390625	0.37362979125976564	0		-0.22823454284667968	5.97702294921875	0		
0.003028430938720703	-0.002171299934387207	0		0.45653094482421874	-2.48631005859375	0		-1.0508321533203124	0.3457982177734375	0		-0.5845745849609375	-2.55158056640625	0		2.80139794921875	-0.263500244140625	0		4.16730615234375	0.050889144897460936	0		5.402890625	0.08021587371826172	0		5.914486328125	0.3516790771484375	0		-0.24375331115722657	5.9682412109375	0		
0.00291074800491333	-0.0021605949401855467	0		0.42956158447265624	-2.48287451171875	0		-1.03592041015625	0.3485400085449219	0		-0.64015625	-2.588760009765625	0		2.79311083984375	-0.2752549133300781	0		4.1623076171875	0.059141956329345706	0		5.41173828125	0.07830850982666016	0		5.92660302734375	0.363776123046875	0		-0.277213134765625	5.961740234375	0		
0.014842616081237794	-3.19707989692688E-4	0		0.4674168701171875	-2.492407470703125	0		-1.0268958740234375	0.35738677978515626	0		-0.5746460571289063	-2.621751220703125	0		2.76523779296875	-0.26071060180664063	0		4.20012890625	0.053746559143066405	0		5.41474365234375	0.08548433685302734	0		5.93019775390625	0.3796325988769531	0		-0.3096473693847656	5.9542333984375	0		
